<svg xmlns="http://www.w3.org/2000/svg" width="132" height="132" viewBox="0 0 132 132">
    <g fill="none" fill-rule="evenodd">
        <path fill="#435608" d="M65.867.286c36.28 0 65.867 29.523 65.867 65.724 0 36.202-29.587 65.724-65.867 65.724S0 102.212 0 66.01C0 29.81 29.586.286 65.867.286"/>
        <path fill="#FFF" d="M65.867 5.255c33.532 0 60.887 27.296 60.887 60.755 0 33.46-27.355 60.756-60.887 60.756-33.533 0-60.888-27.296-60.888-60.756S32.334 5.255 65.867 5.255"/>
        <path fill="#435608" d="M65.846 16.243c27.459 0 49.855 22.348 49.855 49.747s-22.396 49.746-49.855 49.746c-27.458 0-49.854-22.347-49.854-49.746s22.396-49.747 49.854-49.747"/>
        <path fill="#FFF" d="M65.846 21.418c24.607 0 44.67 20.018 44.67 44.572 0 24.553-20.063 44.572-44.67 44.572-24.607 0-44.668-20.019-44.668-44.572 0-24.554 20.061-44.572 44.668-44.572"/>
        <path fill="#435608" d="M48.925 21.274v27.872H21.859l2.955-6.7h17.438V25.892zM48.925 110.685V82.812H21.859l2.955 6.7h17.438v16.555zM82.726 21.274v27.872h27.066l-2.954-6.7H89.4V25.892zM82.726 110.685V82.812h27.066l-2.954 6.7H89.4v16.555z"/>
        <path fill="#FE360E" d="M27.541 65.516c.744-1.608 1.694-3.67 1.694-5.525 0-1.63.765-2.866 2.872-2.866 2.045 0 3.347 2.103 4.277 3.649.206.371 1.28 2.515 2.376 4.742h-5.91c-.123-.227-.206-.392-.268-.495-.227-.371-.62-1.237-1.136-1.237-.579 0-.971 1.402-1.074 1.67 0 .02 0 .02-.021.041l-2.81.02z"/>
        <path fill="#FE360E" d="M26.446 67.928l1.095-2.392v-.02l3.226-1.072c-.104.31-.891 2.205-.891 2.473 0 .392.599.33.847.33H32.5c.248 0 .95.042.95-.309 0-.247-.67-1.594-.938-2.089l6.248.667c.413.824.806 1.649 1.178 2.412H26.446z"/>
        <path fill="#FE360E" d="M26.82 67.14l-.766 1.633c-.352.763-.848 1.876-1.364 2.515-.682.845-1.963.515-1.963 1.629 0 .763.31 1.423 3.678 1.423.95 0 3.491-.042 3.491-1.464 0-1.237-1.508-.619-1.508-1.526 0-1.155.744-1.216 1.963-1.216 3.801 0 4.4.102 4.4 1.154 0 .825-1.445.412-1.445 1.546 0 1.464 2.024 1.506 5.412 1.506 1.178 0 4.525.061 4.525-1.67 0-1.361-1.26-.269-2.045-2.063-.248-.556-.834-1.832-1.392-2.966L26.82 67.14zM41.942 65.742c0 4.721 4.07 8.66 9.028 8.66 2.79 0 4.443-1.382 5.248-1.382 1.178 0 2.273-2.165 2.273-3.216 0-.578-.33-1.382-1.033-1.382-.723 0-1.178 1.63-4.174 1.63-3.305 0-5.165-2.97-5.165-6.454 0-1.298.744-3.01 2.562-3.01 4.215 0 3.595 4.185 6.033 4.185 1.384 0 2.19-1.133 2.19-2.473 0-2.619-1.28-4.103-2.272-4.103-.393 0-.538.165-1.054.165-.62 0-2.107-1.155-4.422-1.155-4.648 0-9.214 3.69-9.214 8.535M73.325 57.537c-.97 0-2.954-.247-2.954 1.196 0 1.67 1.798-.186 1.963 3.422.227 4.268.207 3.835-.083 8.123-.165 2.494-1.756 1.463-1.756 2.762 0 .31.02 1.01 1.57 1.01h9.71c1.592 0 2.666.29 3.017.29.95 0 2.232-2.908 2.232-4.516 0-.66-.372-1.505-1.137-1.505-1.942 0-.557 3.32-5.413 3.32-2.48 0-2.707.164-2.707-3.258 0-.763-.02-1.65.972-1.65 2.376 0 .909 2.475 2.376 2.475 1.425 0 1.59-2.845 1.59-3.794 0-.927-.103-3.587-1.467-3.587-1.673 0-.33 2.619-2.127 2.619-1.447 0-1.509-.062-1.509-1.423 0-2.7-.268-3.175 2.356-3.175 4.483 0 2.975 2.247 4.834 2.247.93 0 1.24-.907 1.24-1.69 0-1.031-.578-3.34-1.922-3.34-.371 0-.826.474-3.987.474h-6.798zM95.123 70.484c1.425 3.195 1.611 3.134 1.983 3.195.765.083 1.612-2.597 2.128-3.69.558-1.195 1.323-3.257 2.046-3.257.826 0 .371 4.04.268 4.453-.165.742-1.219.886-1.219 1.711 0 1.526 3.224 1.443 4.195 1.443 1.032 0 4.276.062 4.276-1.546 0-1.051-1.426-.68-1.488-2.392-.103-2.185-.247-4.782-.247-5.133 0-1.072.165-3.855.372-4.515.227-.804 1.28-.99 1.28-1.917 0-1.484-2.355-1.567-3.388-1.567-3.12 0-3.14.701-4.339 2.928-.867 1.546-1.818 4.411-2.561 4.246-1.033-.247-2.5-4.102-3.327-5.504-.703-1.196-.661-1.67-3.43-1.67-1.88 0-4.09.33-4.09 1.67 0 .969 1.363 1.134 1.59 1.629.269.536.351 1.278.351 2.7 0 3.402-.206 5.608-.392 7.587-.186 1.917-1.611.825-1.611 2.165 0 1.237 2.148 1.32 2.975 1.32.93 0 3.45-.063 3.45-1.423 0-1.279-1.508-.083-1.508-2.618 0-.763-.248-3.876.496-3.876.413 0 .681.7.826 1.01l1.364 3.051z"/>
        <path fill="#FFE800" d="M71.486 43.456c0 4.062-8.904 7.422-8.925 10.844-.041 4.206 11.26 8.968 7.83 15.277-.578 1.051-6.673 4.741-6.673 6.638 0 2.804 2.211 4.474 4.194 6.082 2.541 2.082 3.203 6.123.372 9.628-6.198 7.73-3.615 9.854 3.781 15.524-19.669-5.34-5.516-16.225-5.268-19.73.206-3.01-7.335-6.102-7.335-11.07 0-5.443 7.83-6.722 7.996-9.443.29-4.7-8.967-7.01-8.967-12.534 0-5.917 8.946-8.639 9.09-11.401.125-2.288-6.507-5.628-9.503-8.247-1.818-1.608-3.801-.907-5.393-6.143-.433-1.113.538-1.69 1.364-1.464.723.186 6.136 1.588 6.322 5.69 5.083 2.639 11.115 5.731 11.115 10.35"/>
        <path fill="#FFE800" d="M53.687 27.404c-.33 0-.646.123-.846.345-.252.278-.295.675-.122 1.119 1.141 3.756 2.502 4.457 3.818 5.134.517.267 1.051.542 1.565.996.989.864 2.347 1.789 3.787 2.768 2.857 1.944 5.812 3.955 5.729 5.507-.06 1.125-1.557 2.244-3.292 3.54-2.583 1.93-5.8 4.333-5.8 7.859 0 2.823 2.427 4.797 4.772 6.705 2.23 1.815 4.337 3.529 4.196 5.831-.07 1.132-1.432 2.012-3.01 3.03-2.222 1.432-4.986 3.215-4.986 6.41 0 2.74 2.306 4.906 4.34 6.816 1.656 1.556 3.088 2.9 2.995 4.258-.058.815-.868 2.038-1.805 3.452-1.804 2.72-4.273 6.447-2.997 9.824.486 1.288 1.493 2.455 2.994 3.471 1.656 1.12 3.968 2.095 6.873 2.897-3.938-3.019-6.771-5.22-7.097-7.905-.24-1.977.793-4.238 3.455-7.559 1.33-1.646 1.96-3.487 1.82-5.322-.127-1.693-.904-3.204-2.186-4.255l-.241-.195c-1.95-1.576-3.967-3.207-3.967-5.915 0-1.231 2.473-3.16 4.46-4.712 1.08-.843 2.014-1.571 2.218-1.943 2.052-3.773-1.23-7.02-4.125-9.883-1.916-1.896-3.726-3.687-3.71-5.377.01-1.653 2.04-3.267 4.19-4.976 2.329-1.85 4.736-3.765 4.736-5.868 0-4.557-5.827-7.581-10.968-10.25l-.147-.076v-.021c-.078-1.71-1.068-3.152-2.943-4.285-.963-.582-2.122-1.056-3.353-1.372a1.333 1.333 0 0 0-.353-.048zm18.369 80.079c-5.738-1.557-9.04-3.67-10.093-6.46-1.288-3.41 1.193-7.155 3.005-9.888.932-1.407 1.737-2.621 1.793-3.418.09-1.324-1.329-2.657-2.972-4.201-2.045-1.92-4.363-4.097-4.363-6.868 0-3.234 2.783-5.029 5.019-6.47 1.562-1.008 2.91-1.878 2.977-2.974.14-2.266-1.953-3.969-4.17-5.772-2.358-1.919-4.797-3.903-4.797-6.76 0-3.562 3.232-5.976 5.828-7.916 1.72-1.285 3.206-2.396 3.263-3.487.082-1.511-2.856-3.51-5.698-5.444-1.44-.98-2.801-1.906-3.794-2.774-.507-.448-1.037-.721-1.55-.985-1.33-.685-2.704-1.393-3.853-5.175-.182-.467-.134-.89.137-1.19.29-.32.8-.447 1.27-.319 1.443.37 6.158 1.874 6.348 5.703l.11.057c2.474 1.284 5.278 2.74 7.395 4.412 2.43 1.92 3.611 3.85 3.611 5.902 0 2.138-2.42 4.063-4.762 5.924-2.136 1.698-4.153 3.302-4.163 4.92-.016 1.66 1.784 3.44 3.689 5.326 2.913 2.882 6.214 6.148 4.137 9.968-.212.385-1.15 1.118-2.237 1.966-1.974 1.54-4.432 3.459-4.432 4.655 0 2.674 2.003 4.293 3.94 5.86l.241.195c1.298 1.063 2.084 2.592 2.213 4.305.14 1.854-.494 3.711-1.836 5.372-2.649 3.304-3.678 5.549-3.44 7.506.326 2.687 3.216 4.902 7.215 7.968l-.031.062z"/>
        <path fill="#FFE800" d="M52.781 27.696l-.888-1.052.22-.186.89 1.052z"/>
        <path fill="#FFE800" d="M52.147 26.721l-1.088-.277.071-.28.689.176-.063-.64.288-.029z"/>
        <path fill="#000" d="M64.669 91.677l-.414-16.637c.517-.742 1.53-1.587 2.397-2.267l-.372 16.369-1.611 2.535z"/>
        <path fill="#000" d="M64.292 75.051l.41 16.507 1.543-2.427.37-16.284c-.822.647-1.81 1.47-2.323 2.204zm.344 16.745l-.417-16.767.007-.01c.53-.761 1.563-1.616 2.404-2.275l.06-.047-.002.076-.372 16.38-.006.008-1.674 2.635zM64.152 70.443l-.351-18.43c1.033-1.176 2.355-2.124 3.388-3.01l-.454 19.585c-.806.721-1.653 1.216-2.583 1.855"/>
        <path fill="#000" d="M63.837 52.025l.35 18.35c.224-.152.444-.298.658-.44.65-.43 1.264-.837 1.854-1.364l.453-19.49c-.264.225-.543.452-.838.691-.81.659-1.73 1.405-2.477 2.253zm.28 18.485L63.765 52l.009-.01c.753-.858 1.679-1.61 2.495-2.273.317-.257.616-.5.897-.741l.061-.053-.002.081-.455 19.6-.011.011c-.597.535-1.218.946-1.875 1.381-.23.153-.469.31-.712.477l-.055.038zM63.656 47.291l-.33-13.112c-3.347-12.844 7.169-12.926 4.194 0l-.227 9.958c-.93 1.196-2.211 2.123-3.637 3.154"/>
        <path fill="#000" d="M65.292 24.553a1.7 1.7 0 0 0-.988.332c-1.31.929-2.342 3.918-.943 9.285l.33 13.052c1.364-.987 2.65-1.923 3.566-3.098l.227-9.946c1.251-5.438.117-8.418-1.233-9.319a1.72 1.72 0 0 0-.959-.306zm-1.67 22.807l-.002-.068-.33-13.112c-1.407-5.394-.355-8.411.973-9.353.637-.452 1.376-.462 2.028-.027 1.37.914 2.522 3.92 1.264 9.387l-.227 9.962-.007.01c-.935 1.202-2.25 2.154-3.644 3.161l-.055.04zM65.082 108.19l-.248-9.668c.351-2.289.992-2.928 1.322-3.588l-.31 13.257h-.764z"/>
        <path fill="#000" d="M65.117 108.155h.694l.306-13.07c-.05.09-.105.182-.163.278-.34.567-.805 1.344-1.084 3.164l.247 9.628zm.764.072h-.834l-.001-.035-.248-9.67c.282-1.84.752-2.624 1.095-3.196.085-.142.165-.276.231-.408l.068.017-.31 13.292zM51.77 119.09c.132.991.276 1.513.427 1.553.15.04.478-.358 1.073-1.157l-1.5-.396zm4.451-.84c-.163.008-.296.013-.416.122-.222.193-.646.726-1.301 1.56-1.136 1.432-1.873 2.346-2.118 2.855-.224.464-.316.732-1.042.54-.51-.134-.847-.343-1.046-.698-.349-.626-.558-1.779-.834-3.442-.227-1.39-.26-2.294-.482-2.675-.083-.142-.215-.177-.306-.252a.464.464 0 0 1-.162-.456c.134-.508.843-.552 2.163-.204 1.405.37 2.05.681 1.92 1.17-.05.19-.158.292-.353.34-.182.043-.388.02-.44.217-.075.282.36.508 1.34.767.727.19 1.086.205 1.171-.115.05-.188-.044-.253-.208-.357-.206-.135-.312-.233-.24-.506.118-.442.668-.498 1.686-.23.962.254 1.379.586 1.272.99-.085.32-.303.343-.604.374zM46.072 119.252c-.217.49-.287.672-.112.951.146.224.267.384.153.642-.205.464-1.022.454-2.316-.116-1.053-.465-1.464-.838-1.263-1.292.166-.374.469-.335.755-.38.186-.035.559-.733 1.174-2.122.509-1.148.452-1.79-.458-2.192-.464-.205-.879-.207-1.193-.026-.362.213-.68.882-1.157 1.96l-.122.276c-.311.703-.484 1.116-.418 1.305.072.223.482.404.332.742-.153.348-.782.347-1.737-.074-.812-.358-1.146-.76-.984-1.126.138-.311.37-.283.644-.322.286-.044.373-.24.61-.679.747-1.447 1.163-2.626 1.812-3.224.82-.745 1.962-.795 3.426-.15 1.803.796 2.475 2.168 1.871 3.53l-.974 2.2-.043.097zM40.641 112.014c.06.382-.076.985-.5 1.663-.222.354-.45.442-.731.267-.34-.212-.25-.557-.292-.986-.073-.746-.36-1.28-.84-1.58-.38-.236-.72-.207-.855.007-.186.297.185.586.718 1.297.89 1.186 1.051 2.216.483 3.124-.714 1.14-2.246 1.401-3.702.493-.662-.412-.951-.833-1.092-.92-.198-.125-.41-.153-.56-.246-.214-.134-.31-.331-.354-.646-.082-.568.012-1.048.193-1.337.243-.388.66-.484 1.007-.268.315.196.336.566.484 1.082.1.373.346.698.66.894.323.201.58.178.714-.037.222-.355-.16-.72-.737-1.378-.969-1.098-1.227-1.935-.586-2.959.796-1.271 2.467-1.515 4.18-.448 1.1.686 1.742 1.59 1.81 1.978M26.668 110.22a.773.773 0 0 1-.278-.567c-.016-.594.182-1.187.498-1.571.372-.452.807-.535 1.184-.226.241.198.33.535.267.95-.062.427-.157.665.009.8.128.106.269.058.442-.153l.211-.256c.484-.587 1.091-1.248 1.723-2.015.372-.451.52-.708.384-1.034-.109-.266-.291-.428-.05-.721.36-.437 1.046-.151 2.223.814 1.018.834 1.368 1.513 1.07 1.874-.284.346-.61.066-.91.047-.265-.016-.964.634-2.055 1.958l-.278.338c-.459.557-.66.833-.457 1 .166.136.397.023.75-.067.493-.124.796-.153 1.067.07.271.222.312.633.02.987-.21.255-.66.541-1.294.728-.452.134-.78.117-.96-.031-.143-.117-.225-.31-.368-.428l-2.639-2.164c-.128-.105-.356-.165-.56-.332M25.058 104.227c-.363-.395-.719-.307-1.244.173-.417.382-.474.724-.157 1.068.204.223.353.126.8-.282l.323-.296c.13-.118.274-.25.433-.422a1.232 1.232 0 0 0-.155-.241zm1.726-1.247c.338-.31.526-.494.511-.64-.023-.255-.183-.53.097-.787.374-.342.87-.004 1.727.93.89.969 1.188 1.554.821 1.89-.237.216-.432.104-.739.001-.156-.055-.847.418-2.005 1.476l-.266.244c-.885.809-1.346 1.243-1.314 1.465.042.29.231.554-.042.804-.274.25-.708.066-1.288-.566-.151-.165-.362-.409-.651-.724-.501-.546-.958-.986-1.32-1.381-1.14-1.242-1.25-2.356-.394-3.139.417-.381.892-.512 1.404-.386.26.066.434.198.535.106.143-.131-.162-.407-.208-.788-.067-.506.138-.945.541-1.457.256-.327.451-.532.39-.686-.138-.35-.233-.527-.017-.724.33-.303.984-.095 1.683.666.395.43.599.825.617 1.191.026.504-.225.88-.536 1.362-.511.784-.833 1.197-.444 1.62a.81.81 0 0 0 .2.16l.698-.637z"/>
        <path fill="#000" d="M20.205 96.375c-.56.83-.798 1.315-.711 1.445.087.13.595.048 1.572-.158l-.861-1.287zm3.892 2.311c-.127-.102-.23-.186-.392-.183-.295-.002-.966.117-2.01.31-1.802.322-2.96.52-3.483.738-.476.2-.722.341-1.14-.282-.291-.438-.405-.818-.319-1.215.154-.7.762-1.702 1.66-3.13.751-1.192 1.327-1.892 1.413-2.324.032-.162-.043-.275-.062-.391a.463.463 0 0 1 .18-.448c.439-.293 1 .142 1.758 1.275.807 1.207 1.083 1.866.661 2.147-.162.108-.31.113-.49.022-.165-.09-.303-.244-.473-.13-.243.163-.067.619.496 1.46.417.624.677.872.953.689.162-.108.135-.22.081-.405-.065-.238-.079-.381.156-.538.382-.254.831.067 1.417.942.552.825.644 1.35.295 1.582-.276.183-.454.057-.7-.119zM20.325 90.82c.17.35.047.658-.287.818-.378.182-.574-.134-.84-.213-.342-.105-.879.152-1.767.579l-.8.384c-.959.46-1.5.73-1.568.903-.054.135.035.319.02.467a.457.457 0 0 1-.286.374c-.422.203-.986-.315-1.586-1.562-.575-1.193-.647-1.904-.234-2.102.37-.177.53.112.76.251.168.103.23.117.427.055.298-.1.883-.37 1.78-.8l.703-.338c.615-.296 1.007-.494 1.14-.601.132-.107.119-.36-.046-.702-.297-.614-.572-.85-1.114-.827-.371.016-.626.138-.774-.169-.156-.325.007-.749.43-.951.36-.173 1.042-.285 1.56-.199.292.044.486.177.58.37.029.062.062.446.426 1.2l1.476 3.063z"/>
        <path fill="#000" d="M13.6 82.537c-.768.642-1.132 1.043-1.085 1.191.047.149.559.211 1.554.284l-.47-1.475zm3.096 3.299c-.094-.134-.17-.243-.326-.285-.283-.084-.96-.156-2.017-.26-1.82-.19-2.988-.32-3.55-.254-.514.06-.79.126-1.016-.588-.16-.5-.163-.898.03-1.256.343-.629 1.206-1.423 2.465-2.547 1.054-.936 1.802-1.448 2.005-1.839.076-.147.035-.277.049-.393a.464.464 0 0 1 .298-.38c.502-.16.92.413 1.333 1.712.44 1.382.521 2.091.038 2.244-.186.06-.33.023-.476-.114-.134-.132-.224-.318-.42-.256-.278.088-.236.576.07 1.54.228.715.408 1.026.724.925.187-.059.191-.172.19-.366.005-.246.031-.388.301-.473.437-.139.78.294 1.098 1.296.3.947.244 1.475-.156 1.602-.316.1-.453-.071-.64-.308zM14.761 77.5c-.247.297-.791.594-1.58.725-.414.068-.63-.044-.685-.37-.066-.394.254-.555.548-.87.511-.55.723-1.117.63-1.674-.073-.442-.32-.677-.57-.636-.347.058-.318.527-.5 1.396-.302 1.45-.97 2.253-2.028 2.428-1.329.22-2.539-.754-2.82-2.444-.128-.768-.003-1.263-.03-1.425-.038-.231-.157-.409-.186-.582-.042-.25.044-.451.25-.693.373-.436.797-.684 1.133-.74.453-.075.8.173.868.577.06.364-.203.625-.493 1.078-.214.321-.296.72-.235 1.085.062.374.25.55.5.51.414-.07.435-.596.548-1.463.184-1.452.643-2.2 1.836-2.397 1.482-.246 2.772.843 3.102 2.831.213 1.278-.042 2.356-.288 2.663M12.988 70.791c-.178-.204-.95-.187-2.401-.1-.419.025-.77.037-1.062.054-.565.034-.904.084-1.03.267-.161.244-.194.519-.544.54-.487.03-.76-.598-.838-1.9-.075-1.244.093-1.87.59-1.899.408-.025.512.398.664.487.203.124 1.364.093 3.488-.034.535-.032.856-.071.983-.225.192-.226.252-.532.612-.554.487-.03.769.598.848 1.91.077 1.263-.185 1.952-.633 1.979-.39.023-.478-.303-.677-.525M11.206 62.667c-.948.325-1.431.57-1.44.725-.01.155.445.396 1.35.82l.09-1.545zm1.708 4.186c-.04-.159-.07-.287-.202-.383-.234-.18-.841-.488-1.79-.963-1.633-.827-2.676-1.366-3.225-1.505-.5-.127-.782-.163-.738-.911.03-.525.17-.897.479-1.162.545-.465 1.636-.899 3.215-1.499 1.32-.498 2.202-.71 2.532-1.002.124-.11.131-.246.186-.35a.466.466 0 0 1 .416-.249c.526.031.71.714.63 2.075-.085 1.448-.262 2.14-.769 2.11-.195-.011-.317-.096-.404-.277-.078-.17-.095-.376-.3-.388-.292-.017-.427.453-.486 1.463-.044.749.013 1.103.344 1.123.195.011.24-.093.31-.275.091-.228.167-.35.45-.334.457.027.621.553.56 1.603-.058.991-.301 1.464-.72 1.44-.331-.02-.397-.228-.488-.516zM9.036 57.173c-.18.05-.249.224-.34.324-.147.167-.32.229-.482.193-.515-.112-.535-.704-.282-1.855.075-.342.15-.595.286-.754.24-.276.7-.595 1.333-1.024 1.28-.876 1.982-1.34 2.04-1.606.032-.143-.104-.252-.39-.315-.333-.073-.531-.126-.588-.139-.41-.09-.596-.06-.804.203-.125.162-.197.306-.53.233-.524-.115-.527-.604-.303-1.62.209-.952.426-1.352.893-1.25.334.073.386.244.458.508.09.32.217.377.795.563.605.202 1.321.349 2.125.555 1.192.3 1.933.472 2.222.615.389.185.544.388.48.673-.077.352-.76.83-1.927 1.641-1.369.956-2.16 1.371-2.214 1.619-.056.256.208.374.818.507.6.131 1.02.124 1.121.076.209-.084.329-.496.72-.41.457.1.583.615.379 1.547-.213.97-.53 1.41-.968 1.313-.371-.081-.35-.495-.502-.668-.21-.225-.852-.395-1.938-.633-1.172-.256-1.958-.408-2.402-.296M20.213 42.123c-.47.898-1.166 1.513-2.066 1.824a3.637 3.637 0 0 1-2.876-.203 3.84 3.84 0 0 1-1.847-2.192 3.621 3.621 0 0 1 .237-2.83c.443-.847 1.055-1.175 1.173-1.4.063-.12.062-.308.157-.49.239-.457 1.23-.544 2.044-.12.588.306.766.871.522 1.337-.24.457-.57.417-.998.457-.744.074-1.278.4-1.544.91-.33.63-.092 1.248.67 1.644.579.302 1.188.4 1.762.292.687-.136 1.222-.505 1.497-1.032.253-.483.265-.927.152-1.469-.036-.162-.108-.298-.03-.445.116-.224.467-.283.83-.094.623.324.972 1.045.773 1.425a.217.217 0 0 1-.044.064 3.782 3.782 0 0 1-.412 2.322M21.387 34.717c.9.221 1.533.115 1.821-.278.276-.378.12-.84-.456-1.26a4.765 4.765 0 0 0-1.595-.725c-.997-.256-1.61-.208-1.939.24-.27.37-.128.87.432 1.277.378.276.981.558 1.737.746m-3.968-.585c-.109-.958.18-1.881.852-2.802.65-.889 1.526-1.444 2.486-1.601.94-.147 1.886.095 2.746.72.899.654 1.41 1.508 1.52 2.563.104.932-.171 1.888-.798 2.745-.483.661-1.087 1.125-1.778 1.394-1.206.46-2.531.29-3.549-.449a3.738 3.738 0 0 1-1.479-2.57M26.947 31.972c-.27.28-.602.272-.869.016-.302-.291-.072-.584-.09-.86-.021-.357-.45-.77-1.158-1.452l-.64-.615c-.764-.737-1.206-1.15-1.393-1.153-.145-.004-.287.143-.431.18a.458.458 0 0 1-.451-.137c-.337-.325-.046-1.032.916-2.026.921-.953 1.564-1.268 1.894-.95.295.284.079.536.028.798-.038.194-.03.256.097.419.198.244.654.697 1.37 1.387l.562.54c.492.474.814.771.96.858.147.087.38-.014.644-.287.474-.49.6-.83.39-1.329-.143-.341-.347-.537-.11-.782.25-.26.706-.254 1.043.07.288.278.63.878.729 1.392.06.288.002.516-.147.67-.047.05-.396.214-.98.816l-2.364 2.445zM31.468 27.423c-.303.245-.631.197-.864-.09-.264-.326 0-.59.015-.865.024-.357-.35-.819-.97-1.583l-.56-.689c-.668-.824-1.056-1.288-1.24-1.314-.144-.022-.303.107-.45.126a.458.458 0 0 1-.432-.19c-.294-.364.081-1.03 1.158-1.9 1.032-.833 1.709-1.066 1.997-.71.258.317.012.54-.07.795-.062.187-.061.25.045.427.166.266.563.772 1.19 1.544l.49.605c.43.53.714.865.848.968.135.105.378.033.674-.205.53-.429.697-.75.55-1.271-.1-.357-.278-.577-.013-.791.28-.226.732-.165 1.027.198.251.31.517.947.552 1.47.024.294-.061.513-.228.648-.053.043-.42.163-1.072.69l-2.647 2.137zM36.5 23.455c-.441.27-.69.332-.904-.016-.21-.34.087-.546.154-.827.083-.348-.363-1.183-1.239-2.6-.593-.962-.969-1.497-1.216-1.563-.246-.065-.607.168-.837-.205-.179-.29-.037-.618.453-.919.332-.204 1.097-.617 2.235-1.317 1.304-.801 1.823-1.28 1.889-1.32.432-.266 1.031.018 1.497.772.276.448.227.832-.064 1.01-.324.2-.581-.03-.846-.108-.423-.128-.8-.034-1.266.252-.44.27-.698.429-.726.606-.02.115.123.44.44.953.271.44.324.487.706.253.274-.169.294-.284.2-.547-.16-.427-.287-.67.02-.858.4-.245.85.038 1.356.859.62 1.003.72 1.65.305 1.905-.282.173-.401.018-.64-.258-.278-.321-.368-.392-.675-.203-.34.21-.308.338-.031.785.302.49.486.788.67.846.172.055.423-.077.838-.332.598-.368.927-.764.983-1.267.057-.447-.096-.787.253-1.002.307-.189.6-.105.83.268.235.381.388.87.42 1.423.026.452-.028.68-.227.802-.075.046-.64.188-1.571.76L36.5 23.455zM40.603 13.89c.41-.897 1.094-1.552 2.089-1.978.86-.37 1.467-.291 1.637-.364.18-.077.295-.328.5-.416.467-.2 1.211.222 1.593 1.107.25.581.093 1.052-.41 1.267-.42.18-.71.05-1.133-.191-.55-.315-.986-.414-1.487-.2-.762.328-1.048 1.192-.65 2.113.693 1.61 1.957 2.275 2.835 1.898.305-.13.377-.406.22-.772-.128-.295-.276-.221-.65-.103a.543.543 0 0 1-.678-.292c-.224-.518.297-1.06 1.57-1.606 1.263-.542 1.998-.561 2.221-.043.07.161.062.366-.023.487-.167.252-.383.345-.408.409-.03.077-.001.17.022.298.053.369.064.714-.082 1.19-.248.827-.965 1.505-2.147 2.013-2.178.935-4.204.151-5.09-1.905-.39-.903-.37-1.94.07-2.913M49.98 16.793c-.5.133-.755.12-.86-.275-.103-.385.24-.497.386-.747.18-.31-.007-1.237-.436-2.846-.291-1.091-.497-1.711-.714-1.845-.218-.134-.63-.014-.743-.438-.087-.329.143-.601.7-.75.376-.1 1.228-.275 2.52-.618 1.48-.393 2.114-.702 2.19-.722.49-.13.981.313 1.21 1.17.135.507-.023.862-.353.949-.367.098-.547-.197-.779-.347-.368-.245-.756-.263-1.285-.123-.5.133-.791.21-.87.372-.052.105-.01.457.146 1.04.133.498.17.559.604.444.31-.083.363-.187.35-.466-.03-.455-.082-.724.267-.816.452-.12.801.28 1.05 1.212.303 1.138.214 1.787-.258 1.912-.32.085-.39-.098-.539-.431-.174-.387-.239-.48-.588-.388-.386.102-.391.235-.256.743.148.555.238.894.399 1.002.148.102.426.048.898-.077.678-.18 1.107-.465 1.306-.931.183-.411.135-.781.531-.887.349-.092.604.071.718.495.115.433.12.945-.01 1.483-.104.44-.221.643-.448.703-.084.023-.667-.004-1.723.276l-3.413.906zM62.43 13.115c.202-.13.22-.793.199-2.039-.027-1.596-.1-2.461-.18-2.577-.12-.163-.355-.16-.444-.236-.119-.095-.188-.172-.192-.356-.006-.4.303-.6.937-.61.234-.005.751.016 1.56.002 2.02-.034 3.1-.209 3.246-.21.41-.008.861.705.876 1.571.008.438-.193.685-.544.69-.283.006-.443-.225-.671-.455-.467-.47-.878-.54-1.59-.528-.351.006-.545.068-.582.195-.028.098-.088.537-.076 1.267.003.195.081.193.442.187.303-.005.409-.085.463-.329.073-.323.078-.585.468-.592.478-.008.682.504.7 1.575.02 1.12-.196 1.668-.693 1.677a.418.418 0 0 1-.406-.324c-.096-.505-.102-.817-.6-.808-.33.006-.34.074-.334.376v.048c.016.896.093 1.372.26 1.447.187.084.381.07.47.128.178.104.268.239.272.443.01.584-.631.79-2.007.813-1.414.024-2.09-.159-2.1-.733-.007-.419.265-.462.526-.622M71.906 11.934c.245.893.646 1.393 1.13 1.452.465.056.794-.306.88-1.011a4.747 4.747 0 0 0-.14-1.743c-.262-.993-.603-1.505-1.155-1.573-.455-.055-.824.312-.908.998-.057.464-.01 1.127.193 1.877m-1.42-3.742c.786-.561 1.734-.76 2.867-.622 1.095.133 2.007.626 2.612 1.386.587.748.836 1.69.707 2.744-.135 1.101-.633 1.962-1.503 2.572-.765.545-1.736.77-2.791.642-.813-.1-1.514-.4-2.085-.872-.99-.826-1.488-2.063-1.335-3.31.12-.985.69-1.946 1.528-2.54M80.761 12.207c.517.145.773-.117.966-.8.153-.544.02-.864-.431-.99-.291-.082-.367.078-.53.66l-.119.42c-.047.17-.1.357-.145.587.105.06.184.102.26.123zm-.807 1.968c-.124.44-.186.696-.097.812.155.205.437.355.334.72-.137.488-.737.461-1.958.119-1.268-.355-1.83-.695-1.696-1.173.087-.31.312-.317.626-.39.162-.036.5-.801.924-2.31l.098-.347c.324-1.152.486-1.764.342-1.935-.19-.226-.49-.35-.39-.706.101-.356.567-.428 1.394-.196.216.06.523.157.936.272.714.2 1.335.334 1.852.479 1.624.455 2.306 1.344 1.992 2.46-.153.543-.488.904-.99 1.066-.255.08-.472.06-.51.191-.052.188.353.26.593.56.325.395.382.876.31 1.523-.044.412-.102.69.033.788.3.226.476.325.396.606-.121.431-.786.599-1.782.32-.563-.158-.945-.387-1.154-.688-.288-.414-.273-.865-.263-1.439.02-.934.075-1.455-.48-1.61a.805.805 0 0 0-.254-.031l-.256.91zM89.865 20.03c-.446-.261-.617-.451-.41-.804.203-.344.524-.179.804-.252.348-.09.877-.875 1.72-2.31.573-.975.87-1.557.812-1.806-.058-.248-.433-.456-.21-.834.172-.293.528-.322 1.025-.032.336.197 1.06.677 2.213 1.352 1.322.773 1.988 1.005 2.055 1.045.438.256.468.916.02 1.68-.267.454-.63.591-.925.419-.328-.192-.245-.527-.301-.797-.085-.433-.345-.72-.817-.997-.446-.26-.706-.413-.877-.355-.111.036-.331.314-.637.835-.261.445-.28.513.108.74.277.162.39.126.578-.08.303-.341.458-.567.769-.385.404.237.364.767-.124 1.598-.597 1.016-1.122 1.408-1.543 1.162-.286-.167-.204-.345-.072-.685.153-.396.174-.508-.138-.69-.345-.202-.443-.112-.709.341-.291.496-.469.798-.433.988.031.176.266.336.686.582.606.355 1.111.458 1.583.271.421-.159.651-.454 1.004-.247.312.183.375.479.153.857-.227.386-.588.75-1.062 1.037-.388.236-.615.295-.817.177-.075-.044-.466-.476-1.409-1.027l-3.046-1.783zM96.446 22.573c.258-.054 1.099-.927 2.506-2.646.377-.46.548-.684.444-1.034-.085-.295-.19-.506.014-.755.29-.354.811-.206 1.612.447.544.444.807.784.847.905.052.167-.018.576-.132 1.237-.227 1.324-.467 1.908-.224 2.105.271.222.843-.23 2.174-.778.473-.193.802-.302.99-.286.302.032.612.284 1.065.654.748.61 1.062 1.042.722 1.456-.21.257-.453.108-.626.118-.301.03-.83.568-1.657 1.578-.945 1.153-1.395 1.842-1.406 2.01-.008.131.274.45-.016.803-.34.415-.895.139-1.884-.669-.982-.8-1.335-1.277-.99-1.699.247-.302.515-.12.712-.161.258-.054.588-.426 1.113-1.067.179-.218.205-.373.084-.472-.181-.148-.452.06-1.058.37-1.327.665-1.95 1.087-2.214.872-.22-.179-.042-.826.325-2.136.224-.811.486-1.239.29-1.399-.16-.13-.439.196-1 .882-.365.445-.507.618-.39.876.09.213.213.4.01.65-.278.339-.705.167-1.445-.436-.725-.592-.994-.987-.722-1.319.296-.362.645-.064.856-.106M102.829 29.5c-.346-.384-.45-.617-.146-.89.298-.267.554-.012.843.004.358.02 1.102-.568 2.344-1.68.841-.754 1.302-1.218 1.323-1.472.02-.254-.273-.567.054-.86.253-.227.601-.146.986.282.26.29.804.967 1.697 1.96 1.023 1.137 1.587 1.56 1.64 1.618.338.377.165 1.016-.496 1.607-.392.351-.78.372-1.008.118-.254-.282-.072-.576-.044-.85.052-.438-.109-.792-.473-1.197-.346-.384-.548-.609-.728-.605-.117 0-.411.198-.861.601-.385.345-.423.405-.123.738.215.24.332.239.575.1.392-.233.609-.401.85-.133.312.348.113.84-.606 1.484-.878.786-1.498 1.001-1.824.639-.221-.246-.089-.39.14-.675.267-.33.32-.43.08-.699-.267-.297-.388-.241-.78.11-.428.383-.69.617-.714.809-.023.178.15.401.477.763.469.522.918.774 1.424.74.45-.025.759-.235 1.033.069.24.268.21.57-.116.862-.334.299-.789.536-1.328.666-.441.107-.675.095-.832-.08-.058-.065-.3-.595-1.029-1.406L102.83 29.5zM112.337 34.688c.299.445.664.411 1.256.016.47-.314.578-.644.317-1.032-.168-.25-.33-.177-.833.158l-.365.244c-.146.097-.308.206-.491.352.04.113.073.197.116.262zm-1.895.973c-.38.255-.594.409-.602.555-.016.256.101.553-.215.764-.422.282-.86-.128-1.566-1.18-.733-1.092-.94-1.715-.527-1.991.268-.179.444-.039.731.11.146.077.9-.286 2.206-1.158l.3-.2c.997-.667 1.519-1.027 1.52-1.251.003-.294-.144-.583.164-.789.309-.206.71.042 1.187.754.125.186.296.458.535.814.412.615.798 1.12 1.096 1.564.94 1.4.88 2.518-.085 3.162-.47.314-.96.372-1.448.17-.246-.105-.398-.26-.512-.185-.162.109.099.427.086.81-.01.51-.28.913-.755 1.36-.302.284-.527.457-.489.619.082.367.15.556-.093.718-.373.25-.988-.054-1.563-.912-.326-.485-.467-.906-.43-1.27.05-.503.355-.836.736-1.266.623-.698 1.004-1.058.684-1.535a.804.804 0 0 0-.173-.189l-.787.526zM117.619 39.214c.91.382 1.586 1.045 2.044 2.024.395.847.335 1.455.413 1.622.083.177.337.284.432.487.214.459-.186 1.214-1.061 1.622-.575.267-1.05.123-1.282-.37-.193-.415-.072-.708.158-1.138.299-.557.385-.995.154-1.489-.35-.75-1.225-1.01-2.135-.585-1.592.74-2.22 2.02-1.817 2.885.14.3.418.364.78.196.292-.136.214-.282.084-.651a.54.54 0 0 1 .272-.685c.513-.239 1.07.264 1.656 1.517.581 1.244.622 1.977.11 2.216-.16.073-.365.072-.49-.01-.257-.16-.355-.37-.42-.394-.078-.029-.171.004-.298.03a2.522 2.522 0 0 1-1.195-.045c-.836-.223-1.537-.917-2.081-2.082-1.002-2.144-.278-4.188 1.756-5.134.893-.416 1.932-.427 2.92-.016M114.99 48.654c-.148-.495-.143-.75.25-.868.383-.114.505.226.76.364.316.17 1.24-.045 2.838-.52 1.085-.323 1.7-.547 1.828-.768.127-.22-.005-.629.416-.754.327-.097.607.124.772.674.111.374.313 1.218.695 2.496.438 1.465.767 2.088.79 2.163.145.485-.285.989-1.136 1.242-.505.15-.865.004-.962-.323-.11-.364.18-.551.324-.787.234-.375.24-.763.085-1.285-.149-.495-.235-.784-.4-.857-.106-.05-.456.004-1.036.177-.495.147-.555.185-.427.614.092.308.198.358.477.336.455-.044.722-.103.826.242.134.448-.258.808-1.183 1.084-1.132.337-1.784.267-1.923-.2-.095-.317.086-.392.415-.55.383-.186.475-.253.372-.599-.115-.382-.248-.383-.752-.233-.552.164-.889.265-.993.427-.097.152-.035.428.105.894.2.672.499 1.091.972 1.275.417.17.786.112.903.504.104.345-.053.605-.473.73-.43.128-.944.149-1.487.036-.444-.091-.651-.202-.718-.426-.025-.084-.016-.666-.328-1.711l-1.01-3.377zM122.533 54.395c.152-.11.154-.298.205-.423.078-.208.22-.327.383-.35.521-.076.749.471.918 1.637.05.347.069.61-.001.807-.128.343-.445.802-.887 1.426-.89 1.27-1.383 1.95-1.343 2.22.02.145.186.2.476.158.338-.049.542-.069.6-.077.415-.06.579-.152.68-.472.06-.196.077-.356.415-.404.53-.077.705.38.855 1.41.14.964.077 1.415-.396 1.484-.338.049-.447-.093-.607-.316-.197-.266-.336-.276-.943-.247-.637.023-1.36.138-2.185.227-1.222.138-1.976.237-2.297.205-.429-.037-.646-.173-.687-.461-.052-.357.42-1.045 1.226-2.214.944-1.376 1.537-2.042 1.5-2.292-.037-.26-.326-.278-.944-.188-.608.088-1 .243-1.077.323-.165.151-.132.58-.528.637-.463.067-.764-.372-.9-1.316-.143-.982-.002-1.505.442-1.569.376-.054.502.34.706.45.276.136.936.07 2.037-.089 1.188-.172 1.976-.305 2.352-.566M117.785 66.595c.006-1.012.342-1.876 1-2.564a3.633 3.633 0 0 1 2.65-1.133c.975.005 1.939.41 2.647 1.105a3.622 3.622 0 0 1 1.087 2.624c-.005.954-.398 1.526-.4 1.78 0 .136.086.302.085.506-.003.516-.845 1.047-1.762 1.041-.663-.003-1.08-.424-1.078-.95.003-.516.316-.63.679-.863.626-.405.951-.938.955-1.513.003-.71-.491-1.15-1.35-1.156-.654-.003-1.24.188-1.7.545-.549.435-.855 1.008-.858 1.602-.003.545.19.945.538 1.375.107.127.233.215.232.381-.001.253-.285.466-.695.463-.702-.003-1.343-.484-1.341-.913 0-.029 0-.048.01-.077a3.784 3.784 0 0 1-.699-2.253M121.154 75.394c-.23-.12-.537-.174-.943-.232l-.232-.033c-.84-.12-1.322-.13-1.46.018-.175.182-.248.486-.653.428-.58-.083-.703-.74-.516-2.04.183-1.282.549-1.909 1.032-1.84.29.042.376.26.477.52.05.135.086.229.197.275.168.063.657.162 1.478.279.348.05.58.073.721.054.212-.03.418-.167.686-.315l1.383-.777c.364-.204.357-.43.468-.582a.537.537 0 0 1 .525-.23c.57.081.611.687.425 1.988-.191 1.34-.414 1.928-.926 1.855-.319-.046-.39-.302-.526-.321-.067-.01-.23.026-.463.14-.233.114-.354.205-.37.311-.02.145.45.576.672.607.126.019.348-.225.637-.184.387.055.541.559.407 1.494-.138.963-.347 1.396-.792 1.333-.241-.035-.378-.182-.408-.452-.018-.15.006-.314-.09-.475-.117-.214-.314-.419-.554-.67l-.6-.626c-.171-.182-.329-.39-.575-.525M116.305 83.571c.122.233 1.191.805 3.23 1.692.546.238.809.342 1.117.147.263-.162.438-.32.733-.191.42.183.418.723.005 1.67-.28.642-.538.986-.643 1.057-.148.095-.561.139-1.23.209-1.338.14-1.967.067-2.092.353-.14.321.45.748 1.34 1.878.314.403.508.69.544.874.05.299-.11.665-.343 1.2-.387.883-.718 1.302-1.21 1.088-.304-.133-.227-.407-.284-.57-.11-.282-.772-.644-1.97-1.165-1.368-.596-2.154-.842-2.319-.807-.129.028-.36.385-.78.202-.492-.214-.375-.822.136-1.99.507-1.16.871-1.629 1.372-1.41.358.155.256.46.348.64.122.233.57.449 1.33.78.26.113.416.096.478-.047.094-.214-.179-.418-.642-.917-1.002-1.094-1.577-1.578-1.44-1.89.112-.259.785-.264 2.148-.266.843-.004 1.326.132 1.427-.1.082-.188-.307-.368-1.121-.722-.527-.23-.733-.319-.951-.137-.18.144-.329.313-.624.185-.402-.176-.352-.632.03-1.506.375-.857.683-1.221 1.077-1.05.429.186.237.602.334.793M111.347 91.574c.278-.435.474-.598.82-.379.338.215.16.529.223.811.078.35.845.906 2.252 1.8.955.606 1.527.924 1.778.875.25-.048.473-.415.843-.18.288.183.304.54-.005 1.024-.21.329-.718 1.033-1.435 2.158-.823 1.29-1.08 1.946-1.122 2.011-.272.428-.935.433-1.684-.043-.444-.282-.568-.65-.385-.936.204-.321.537-.225.809-.271.437-.069.735-.318 1.028-.778.278-.435.44-.69.388-.862-.032-.113-.302-.342-.813-.666-.436-.277-.504-.297-.745.08-.173.272-.14.385.059.58.33.315.551.477.357.781-.252.394-.78.335-1.595-.182-.996-.633-1.37-1.17-1.108-1.581.178-.28.353-.191.689-.047.39.167.502.192.696-.112.215-.337.129-.437-.316-.72-.485-.308-.782-.496-.973-.468-.178.025-.347.253-.609.664-.377.59-.499 1.09-.329 1.568.144.426.43.666.21 1.01-.193.304-.492.356-.863.121a3.049 3.049 0 0 1-1-1.097c-.222-.395-.273-.623-.147-.82.047-.074.494-.448 1.08-1.368l1.897-2.973zM107.22 100.505c-.353-.263-.487-.301-.678-.08-.654.761-.439 1.587.65 2.519 1.273 1.09 2.225 1.238 2.936.41.108-.124.141-.238.103-.283-.04-.059-.417-.382-1.12-.985a70.763 70.763 0 0 0-1.891-1.58m1.428-2.843c.002.207-.122.396-.1.505.043.19 1.054 1.106 3.015 2.786.333.285.347.284.615.167.241-.101.419-.129.641.062.422.361.193.717-.366 1.367-.178.207-.363.407-.535.607-.177.206-.602.715-1.3 1.527-1.48 1.721-3.296 1.86-5.028.376-.896-.767-1.35-1.63-1.392-2.64-.032-.86.353-1.622 1.109-2.501.286-.332.689-.756 1.194-1.299.222-.258.414-.466.56-.636l.451-.524c.366-.367.641-.477.938-.224.14.12.19.241.198.427M103.138 104.255c-.046.267.455.852 1.44 1.919.284.308.514.572.713.787.383.415.636.646.857.628.292-.03.526-.178.764.08.33.357.015.965-.947 1.848-.918.844-1.509 1.11-1.846.744-.278-.3-.015-.649-.042-.822-.032-.235-.79-1.114-2.23-2.674-.364-.394-.596-.618-.796-.619-.297-.005-.572.142-.816-.123-.331-.358-.022-.972.947-1.862.932-.858 1.632-1.09 1.936-.761.265.286.067.56.02.855M96.405 107.954c.82-.598 1.716-.841 2.66-.722a3.63 3.63 0 0 1 2.49 1.452c.576.786.822 1.8.683 2.781a3.626 3.626 0 0 1-1.468 2.433c-.772.563-1.467.587-1.672.736-.11.081-.193.249-.358.37-.417.304-1.346-.056-1.887-.795-.391-.535-.3-1.12.126-1.43.417-.303.696-.12 1.098.032.699.262 1.322.205 1.787-.133.575-.42.636-1.079.13-1.77-.386-.527-.89-.884-1.451-1.04-.677-.182-1.32-.087-1.8.263-.441.322-.65.714-.789 1.25-.039.16-.035.315-.169.412-.205.15-.545.048-.786-.282-.415-.566-.409-1.367-.062-1.619a.216.216 0 0 1 .069-.038 3.792 3.792 0 0 1 1.4-1.9M93.574 111.627c-.105.25.251.933.97 2.193.208.364.374.673.518.927.28.49.475.773.695.804.29.037.551-.056.725.249.242.423-.202.944-1.338 1.59-1.085.616-1.72.742-1.967.31-.203-.355.132-.635.144-.81.022-.236-.519-1.262-1.57-3.107-.266-.465-.442-.734-.637-.78-.288-.072-.59.01-.768-.304-.242-.422.197-.952 1.342-1.603 1.102-.626 1.837-.695 2.06-.306.192.338-.063.56-.174.837M91.471 117.83c.145.12.328.074.462.092.221.024.372.13.436.283.203.485-.271.841-1.36 1.296-.325.135-.575.219-.784.2-.365-.037-.89-.23-1.606-.5-1.455-.544-2.239-.85-2.49-.744-.136.056-.148.23-.035.5.132.313.202.506.225.56.162.386.292.522.628.54.205.009.364-.015.496.3.207.493-.193.776-1.156 1.178-.9.376-1.354.429-1.539-.012-.131-.314-.021-.455.155-.666.21-.256.184-.394.005-.973-.182-.61-.474-1.28-.767-2.054-.438-1.147-.723-1.852-.771-2.169-.072-.424.005-.667.275-.78.333-.14 1.119.145 2.455.632 1.57.569 2.366.976 2.6.878.243-.101.187-.384-.054-.96-.237-.565-.485-.905-.582-.96-.189-.121-.596.017-.75-.351-.181-.431.17-.83 1.052-1.2.918-.382 1.46-.377 1.633.036.147.35-.205.572-.26.795-.063.301.166.923.595 1.947.463 1.105.79 1.834 1.137 2.132M81.606 115.638c.501-.127.757-.112.858.284.1.387-.245.495-.393.744-.184.308-.006 1.237.407 2.85.28 1.095.48 1.717.696 1.853.216.135.63.02.738.444.085.331-.148.601-.706.743-.378.097-1.231.264-2.526.594-1.485.38-2.122.682-2.198.702-.491.125-.979-.324-1.198-1.182-.131-.51.03-.862.361-.947.369-.094.546.203.776.355.366.249.754.27 1.283.135.502-.127.795-.202.874-.364.054-.103.014-.455-.135-1.04-.128-.5-.164-.561-.6-.45-.311.08-.365.184-.354.462.026.456.075.725-.275.814-.454.115-.799-.289-1.038-1.223-.293-1.141-.197-1.789.276-1.91.322-.081.389.102.535.437.17.389.234.483.584.394.388-.099.394-.231.264-.74-.143-.557-.23-.897-.389-1.007-.147-.103-.426-.052-.899.068-.68.174-1.112.455-1.316.919-.187.41-.142.78-.54.88-.35.09-.603-.076-.712-.5-.111-.434-.111-.947.023-1.484.11-.44.229-.641.456-.699.085-.022.667.01 1.726-.26l3.422-.872z"/>
    </g>
</svg>
